# xmcd
#
# Track frame offsets: 
#        150
#        10384
#        26760
#        40811
#        62315
#        77780
#        98094
#        110771
#        125833
#        137599
#        153517
#        168869
#
# Disc length: 2564 seconds
#
# Revision: 0
# Processed by: cddbd v1.5.2PL0 Copyright (c) Steve Scherf et al.
# Submitted via: ExactAudioCopyFreeDBPlugin 1.0
#
DISCID=970a020c
DTITLE=The Rolling Stones - Blue and Lonesome
DYEAR=2016
DGENRE=Blues
TTITLE0=1. "Just Your Fool"   Buddy Johnson 2:16
TTITLE1=2. "Commit a Crime"   Howlin' Wolf 3:38
TTITLE2=3. "Blue and Lonesome"   Little Walter 3:07
TTITLE3=4. "All of Your Love"   Magic Sam 4:46
TTITLE4=5. "I Gotta Go"   Little Walter 3:26
TTITLE5=6. "Everybody Knows About My Good Thing"   
TTITLE6=Miles Grayson Lermon Horton
TTITLE7=4:30
TTITLE8=7. "Ride 'Em On Down"   Eddie Taylor 2:48
TTITLE9=8. "Hate to See You Go"   Little Walter 3:20
TTITLE10=9. "Hoo Doo Blues"   
TTITLE11=Otis Hicks Jerry West
EXTD=
EXTT0=
EXTT1=
EXTT2=
EXTT3=
EXTT4=
EXTT5=
EXTT6=
EXTT7=
EXTT8=
EXTT9=
EXTT10=
EXTT11=
PLAYORDER=
